<svg xmlns="http://www.w3.org/2000/svg" viewBox="0 0 75 65"><defs><style>.cls-1{fill:#2065af;}</style></defs><g id="Capa_2" data-name="Capa 2"><g id="Capa_8" data-name="Capa 8"><path class="cls-1" d="M61.7,34.79c.78,1.45,3.87,1,7.49.47,2.33-.35,5.14-.94,5.14-.94s0-.2,0-.21A3,3,0,0,1,75,35.74a3.47,3.47,0,0,1-.21,1.65c-.47,1.36-2.65,6.09-7.28,6.62l-2.36.23a49.36,49.36,0,0,0,3,9c2.67,5.75,4,8.63,4.07,8.74.18.3.73,1.23.43,1.89a1.58,1.58,0,0,1-1.29.71c-2.8.44-4.47.7-6.42,0C60.55,63,58.33,58,56.77,54.41a66.56,66.56,0,0,1-3.21-9.93,50.88,50.88,0,0,0-8.35-.71c-6.36.16-9.09,2.82-10.49,1.18-1.06-1.23-.42-3.82.21-5.2,2-4.35,7.91-5.26,10.71-5.2,1,0,4.28.24,4.28.24A76.47,76.47,0,0,0,46.07,23,73.7,73.7,0,0,0,40.5,12.81l-1.07.24c-1.69.39-6,14.76-6.42,16.3-.22.72,0-.14-2.36,6.86-3.2,9.37-4.07,12.17-6,16.31-2.53,5.45-4,7-4.49,7.56-1.34,1.4-3.9,4.06-7.93,4.49A10.7,10.7,0,0,1,3.46,61.5,11.78,11.78,0,0,1,0,52.75,10.25,10.25,0,0,1,1.1,49c1-2.08,3.5-5.54,6-5a4.07,4.07,0,0,1,2.56,2.36c.86,2,0,3.67.86,4.26a1.52,1.52,0,0,0,1.29,0,3.82,3.82,0,0,0,1.92-2.13A293.48,293.48,0,0,0,24.65,20.61,87.07,87.07,0,0,1,31.51,5.72,11.31,11.31,0,0,1,36,1,9.34,9.34,0,0,1,41.14.05a11.52,11.52,0,0,1,6.43,3.07c1.56,2.14,2.7,4,3.42,5.2,3.83,6.47,6,12.59,10.07,24.58Z"/></g></g></svg>