<svg xmlns="http://www.w3.org/2000/svg" viewBox="0 0 399.31 97.33"><defs><style>.cls-1{font-size:86px;stroke:#000;stroke-miterlimit:10;stroke-width:3px;font-family:Swiss721BT-RomanExtended, Swis721 Ex BT;letter-spacing:0.05em;}.cls-2{fill:#2065af;}</style></defs><g id="Capa_2" data-name="Capa 2"><g id="Capa_8" data-name="Capa 8"><text class="cls-1" transform="translate(1.5 75.55)"><tspan xml:space="preserve">RH  TEL</tspan></text><path class="cls-2" d="M205.66,47.22c.77,1.45,3.87,1,7.49.47,2.33-.35,5.14-.95,5.14-.95s0-.19,0-.2a3,3,0,0,1,.66,1.62,3.5,3.5,0,0,1-.21,1.66c-.48,1.36-2.65,6.08-7.28,6.61l-2.36.24a48.51,48.51,0,0,0,3,9c2.67,5.76,4,8.63,4.07,8.75.18.3.73,1.23.43,1.89s-.93.65-1.29.71c-2.8.43-4.47.69-6.42,0-4.36-1.55-6.58-6.62-8.14-10.17a66.61,66.61,0,0,1-3.21-9.92,50.88,50.88,0,0,0-8.35-.71c-6.36.15-9.09,2.82-10.49,1.18-1.06-1.23-.42-3.82.21-5.2,2-4.35,7.91-5.26,10.71-5.2,1,0,4.28.24,4.28.24A75.52,75.52,0,0,0,190,35.4a73,73,0,0,0-5.56-10.16l-1.07.23c-1.69.4-6,14.77-6.43,16.31-.21.71,0-.15-2.35,6.86-3.2,9.37-4.08,12.16-6,16.3-2.53,5.45-4,7-4.49,7.57-1.34,1.39-3.9,4.06-7.93,4.49a10.73,10.73,0,0,1-8.78-3.07c-.54-.56-3.79-4-3.42-8.75a10.18,10.18,0,0,1,1.07-3.78c1-2.09,3.5-5.55,6-5a4.08,4.08,0,0,1,2.57,2.37c.86,2,0,3.67.86,4.25a1.43,1.43,0,0,0,1.28,0,3.77,3.77,0,0,0,1.93-2.12A293.48,293.48,0,0,0,168.61,33a87.29,87.29,0,0,1,6.85-14.9,11.39,11.39,0,0,1,4.5-4.72,9.37,9.37,0,0,1,5.14-.95,11.51,11.51,0,0,1,6.42,3.07c1.56,2.15,2.71,4,3.43,5.2,3.83,6.47,6,12.6,10.06,24.59Z"/></g></g></svg>